<svg width="800" height="800" viewBox="0 0 800 800" fill="none" xmlns="http://www.w3.org/2000/svg">
<path d="M200 800C89.5431 800 -3.91405e-06 710.457 -8.74228e-06 600V600L200 600L200 800V800Z" fill="#FFC300"/>
<path d="M0 400C110.457 400 200 489.543 200 600V600L-8.74228e-06 600L0 400V400Z" fill="#0165FA"/>
<path d="M400 600C289.543 600 200 510.457 200 400V400L400 400L400 600V600Z" fill="#FA0000"/>
<path d="M400 600C400 710.457 310.457 800 200 800V800L200 600L400 600V600Z" fill="#FF4C00"/>
<path d="M600 800C489.543 800 400 710.457 400 600V600L600 600L600 800V800Z" fill="#FF4C00"/>
<path d="M400 600C400 489.543 489.543 400 600 400V400V600H400V600Z" fill="#FA0000"/>
<path d="M800 600C689.543 600 600 510.457 600 400V400L800 400L800 600V600Z" fill="#FFC300"/>
<path d="M800 600C800 710.457 710.457 800 600 800V800L600 600L800 600V600Z" fill="#0165FA"/>
<path d="M400 400C400 289.543 489.543 200 600 200V200V400H400V400Z" fill="#0165FA"/>
<path d="M600 200C489.543 200 400 110.457 400 0V0L600 -8.74228e-06L600 200V200Z" fill="#FFC300"/>
<path d="M600 -8.74228e-06C710.457 -3.91405e-06 800 89.5431 800 200V200L600 200L600 -8.74228e-06V-8.74228e-06Z" fill="#FF4C00"/>
<path d="M800 200C800 310.457 710.457 400 600 400V400L600 200L800 200V200Z" fill="#FA0000"/>
<path d="M0 200C110.457 200 200 289.543 200 400V400L-8.74228e-06 400L0 200V200Z" fill="#FA0000"/>
<path d="M0 200C0 89.5431 89.5431 0 200 0V0L200 200L0 200V200Z" fill="#FF4C00"/>
<path d="M400 200C289.543 200 200 110.457 200 0V0L400 2.38498e-06L400 200V200Z" fill="#0165FA"/>
<path d="M400 200C400 310.457 310.457 400 200 400V400L200 200L400 200V200Z" fill="#FFC300"/>
</svg>
